<svg aria-hidden="true" style="width:0;height:0;position:absolute;overflow:hidden" xmlns="http://www.w3.org/2000/svg"><defs><symbol id="icon-44" viewBox="0 0 32 32"><path d="m31.008 27.231-7.58-6.447c-.784-.705-1.622-1.029-2.299-.998a11.954 11.954 0 0 0 2.87-7.787c0-6.627-5.373-12-12-12s-12 5.373-12 12 5.373 12 12 12c2.972 0 5.691-1.081 7.787-2.87-.031.677.293 1.515.998 2.299l6.447 7.58c1.104 1.226 2.907 1.33 4.007.23s.997-2.903-.23-4.007zM12 20a8 8 0 1 1 0-16 8 8 0 0 1 0 16z"/></symbol><symbol id="icon-magnifier-tool-on-earth-globe_icon-iconscom_56919-1" viewBox="0 0 32 32"><path fill="#efeee5" d="m31.268 27.732-6.055-6.057a15.228 15.228 0 0 1-3.49 3.507l-.045.031 6.055 6.055c.977.977 2.558.977 3.535 0s.977-2.558 0-3.535zM26 13c0-7.18-5.82-13-13-13S0 5.82 0 13s5.82 13 13 13 13-5.82 13-13zm-11.484 6.227c-.131.724-.08 1.49-.365 2.183-.235.469.005 1.025-.172 1.49-.327.033-.644.099-.979.099-5.514 0-10-4.486-10-10 0-2.168.711-4.162 1.888-5.803-.034.138-.069.277-.072.422-.034.546.06 1.137.431 1.561.188.247.522.322.698.583.226.317.683.317.905.64.201.275.422.537.631.808.152.189.19.475.425.59.534.271 1.19.195 1.696.536.881.515 1.731 1.105 2.687 1.477.329.153.819-.022 1.028.346.157.436-.352.694-.424 1.083-.056.246.045.537-.143.74.197.488.521.912.809 1.347.239.35.663.508.914.844.171.322.075.707.042 1.053zm.734 3.495c.134-.271.244-.554.436-.793.102-.115.062-.342.252-.375.275-.061.648-.031.761-.358-.041-.041-.078-.084-.115-.123.172-.004.342-.02.514-.018.389-.506.85-.961 1.129-1.539.162-.304.563-.308.774-.56.178-.193.387-.373.508-.612.082-.338-.041-.734.196-1.027.228-.263.535-.492.596-.857.068-.223-.074-.443-.274-.533-.658-.332-1.459-.268-2.078-.695-.19-.172-.123-.475-.287-.668-.215-.284-.589-.333-.906-.433-.258-.067-.439-.274-.676-.385a3.731 3.731 0 0 0-1.861-.394c-.252.011-.512.108-.643.337-.066.137-.223.047-.323.007-.513-.253-1.069-.514-1.383-1.018-.065-.124-.195-.18-.314-.236.061-.276.312-.486.287-.784-.325-.109-.653.064-.981.025-.202-.03-.18-.279-.2-.431-.04-.302.028-.643.297-.823.331-.24.774-.497 1.189-.318.35.149.357.619.686.791.194-.329-.055-.693-.058-1.038.189-.279.501-.43.742-.654.177-.137-.075-.365.076-.515.296-.404.606-.829 1.05-1.08.296-.173.643-.02.963-.045.25-.082.385-.341.613-.458.336-.198.74-.163 1.107-.101-.123-.245-.228-.627-.545-.659-.252.093-.316.44-.592.52-.26.151-.514-.061-.683-.244a4.868 4.868 0 0 1-.936.302c.664-.294 1.392-.426 2.041-.757.096-.057.268-.147.186-.28-.203-.373-.644-.536-.852-.908-.135-.195-.152-.463-.334-.622-.26-.113-.529.153-.791.034-.326-.158-.554-.491-.922-.567-.203-.046-.47-.097-.628.073-.111.358.15.696.166 1.05-.144.277-.223.577-.319.872-.06.211-.291.302-.493.255-.01-.205.109-.511-.147-.609-.486-.196-.993-.348-1.47-.565-.314-.109-.631-.459-.397-.789.301-.404.785-.603 1.168-.91.034-.026.063-.061.095-.093.376-.043.743-.114 1.13-.114.245 0 .475.055.716.072-.13.072-.261.143-.375.239.189.095.405.057.608.088.483.024.789.531 1.274.536.1-.246-.299-.196-.343-.397.188-.021.397.07.569-.028.018-.093-.021-.147-.074-.193.62.152 1.217.357 1.787.619-.002.047.003.094-.033.144-.123.24-.567.143-.576.446.172.44.512.807.869 1.11.246.182.635.355.902.12.229-.223.311-.603.543-.814 2.492 1.82 4.132 4.743 4.132 8.059 0 4.737-3.32 8.695-7.75 9.722z"/></symbol></defs></svg>